HIERARCHY
ROOT Hips
{
 OFFSET 0.000000 0.000000 0.000000
 CHANNELS 6 Xposition Yposition Zposition Yrotation Xrotation Zrotation
 JOINT Chest
 {
  OFFSET 0.000000 13.173100 -0.061900
  CHANNELS 3 Yrotation Xrotation Zrotation
  JOINT Chest2
  {
   OFFSET 0.000000 8.040800 0.126200
   CHANNELS 3 Yrotation Xrotation Zrotation
   JOINT Chest3
   {
    OFFSET 0.000000 7.994400 0.000000
    CHANNELS 3 Yrotation Xrotation Zrotation
    JOINT Chest4
    {
     OFFSET 0.000000 7.986200 0.000000
     CHANNELS 3 Yrotation Xrotation Zrotation
     JOINT Neck
     {
      OFFSET 0.000000 12.259400 0.000000
      CHANNELS 3 Yrotation Xrotation Zrotation
      JOINT Head
      {
       OFFSET 0.000000 7.518700 0.267100
       CHANNELS 3 Yrotation Xrotation Zrotation
       End Site
       {
        OFFSET 0.000000 13.617700 0.141000
       }
      }
     }
     JOINT RightCollar
     {
      OFFSET -2.983800 8.314300 0.000000
      CHANNELS 3 Yrotation Xrotation Zrotation
      JOINT RightShoulder
      {
       OFFSET -16.133400 0.000000 0.000000
       CHANNELS 3 Yrotation Xrotation Zrotation
       JOINT RightElbow
       {
        OFFSET 0.000000 -29.822100 0.000000
        CHANNELS 3 Yrotation Xrotation Zrotation
        JOINT RightWrist
        {
         OFFSET 0.000000 -24.437700 0.010900
         CHANNELS 3 Yrotation Xrotation Zrotation
         End Site
         {
          OFFSET 0.000000 -18.312300 0.000000
         }
        }
       }
      }
     }
     JOINT LeftCollar
     {
      OFFSET 2.983800 8.314300 0.000000
      CHANNELS 3 Yrotation Xrotation Zrotation
      JOINT LeftShoulder
      {
       OFFSET 16.133400 0.000000 0.000000
       CHANNELS 3 Yrotation Xrotation Zrotation
       JOINT LeftElbow
       {
        OFFSET 0.000000 -29.822100 0.000000
        CHANNELS 3 Yrotation Xrotation Zrotation
        JOINT LeftWrist
        {
         OFFSET 0.000000 -24.437700 0.010900
         CHANNELS 3 Yrotation Xrotation Zrotation
         End Site
         {
          OFFSET 0.000000 -18.312300 0.000000
         }
        }
       }
      }
     }
    }
   }
  }
 }
 JOINT RightHip
 {
  OFFSET -11.206700 0.306200 0.030900
  CHANNELS 3 Yrotation Xrotation Zrotation
  JOINT RightKnee
  {
   OFFSET 0.000000 -57.334900 0.009400
   CHANNELS 3 Yrotation Xrotation Zrotation
   JOINT RightAnkle
   {
    OFFSET 0.000000 -43.376200 0.036600
    CHANNELS 3 Yrotation Xrotation Zrotation
    JOINT RightToe
    {
     OFFSET 0.000000 -10.035500 18.363100
     CHANNELS 3 Yrotation Xrotation Zrotation
     End Site
     {
      OFFSET 0.000000 -1.618500 7.239000
     }
    }
   }
  }
 }
 JOINT LeftHip
 {
  OFFSET 11.206700 0.306200 0.030900
  CHANNELS 3 Yrotation Xrotation Zrotation
  JOINT LeftKnee
  {
   OFFSET 0.000000 -57.334900 0.009400
   CHANNELS 3 Yrotation Xrotation Zrotation
   JOINT LeftAnkle
   {
    OFFSET 0.000000 -43.376200 0.036600
    CHANNELS 3 Yrotation Xrotation Zrotation
    JOINT LeftToe
    {
     OFFSET 0.000000 -10.035500 18.363100
     CHANNELS 3 Yrotation Xrotation Zrotation
     End Site
     {
      OFFSET 0.000000 -1.618500 7.239000
     }
    }
   }
  }
 }
}
MOTION
Frames: 5
Frame Time: 0.008333
0.000000 110.232800 0.000000 0.000000 -5.767877 0.000000 0.000000 11.653817 0.000000 0.000000 -5.885947 0.000000 0.000000 -0.000000 0.000000 0.000000 -0.000000 0.000000 0.000000 12.528835 0.000000 0.000000 0.711642 0.000000 0.000000 -0.000000 0.000000 0.000000 0.000000 -90.000000 0.000000 -2.309062 0.000000 0.000000 2.309062 0.000000 0.000000 -0.000000 0.000000 0.000000 -0.000000 90.000000 0.000000 -2.309062 0.000000 0.000000 2.309062 0.000000 0.000000 8.520406 0.000000 0.000000 1.905762 0.000000 -0.000000 -4.658285 0.000000 0.000000 -0.000000 0.000000 0.000000 8.520406 0.000000 0.000000 1.905762 0.000000 -0.000000 -4.658285 0.000000 0.000000 -0.000000 0.000000
-94.534486 64.500397 92.714742 173.159779 -37.909581 -3.372382 -0.861008 19.148496 1.078112 -0.126351 2.303080 0.274891 -0.202301 3.793829 0.450336 -0.678240 16.642008 1.918034 -5.741622 18.732148 -1.317086 -10.105134 -0.923205 -0.595414 -3.586334 0.008766 -2.793123 -0.641582 -2.358964 1.996732 -147.078042 -73.774043 164.033353 1.384508 3.526986 0.432138 -9.094424 0.598767 -2.164554 -1.896066 -32.609748 9.427010 -30.281149 -76.686836 22.997606 -2.733424 -19.339976 16.541858 -4.482788 -42.998478 5.027402 -112.752010 85.907556 -108.173052 -0.399123 -9.142219 -2.586227 0.470929 -0.738948 0.244333 -0.531236 -39.777451 5.979122 71.195969 84.621100 60.337011 -6.311644 -12.938411 10.664909 0.297692 0.934183 0.101865
-94.535238 64.501848 92.723929 173.117137 -37.942960 -3.354571 -0.899472 19.147040 1.068547 -0.130014 2.301451 0.275230 -0.189932 3.800205 0.448044 -0.722276 16.627212 1.922676 -5.886469 18.784498 -1.407117 -10.340441 -0.825977 -0.718451 -3.610559 0.024051 -2.812580 -0.680078 -2.353029 1.982436 -146.644415 -73.781732 163.651126 1.345146 3.513004 0.400412 -9.190407 0.643713 -2.158395 -2.121085 -33.120161 9.717701 -26.363705 -76.178265 19.164514 -2.342846 -19.793531 16.416685 -4.498496 -42.964522 5.044871 -112.592624 85.921088 -108.024632 -0.378698 -9.138518 -2.591486 0.453317 -0.733515 0.234119 -0.526382 -39.744556 5.985395 71.117732 84.615080 60.272291 -6.310604 -12.927788 10.643882 0.318200 0.934449 0.107088
-94.530947 64.503118 92.736289 173.032610 -37.977427 -3.333033 -0.893512 19.146522 1.083942 -0.133306 2.299979 0.275697 -0.195356 3.797875 0.448809 -0.746430 16.621961 1.923715 -6.024152 18.829320 -1.493157 -10.564123 -0.742875 -0.835933 -3.636778 0.041794 -2.831054 -0.680213 -2.335296 1.966346 -146.290131 -73.781542 163.302613 1.312591 3.512598 0.375593 -9.286234 0.674016 -2.151551 -2.338932 -33.606958 10.027931 -22.605414 -75.657208 15.499416 -1.903550 -20.385814 16.261668 -4.506671 -42.932835 5.086318 -112.237113 85.925532 -107.655933 -0.348884 -9.114082 -2.626530 0.451912 -0.735859 0.228445 -0.491009 -39.712374 6.019432 71.018098 84.620205 60.196825 -6.315060 -12.916692 10.624341 0.336597 0.930866 0.114069
-94.530398 64.501472 92.752927 172.989098 -37.991357 -3.320580 -0.926848 19.126793 1.083865 -0.136333 2.299027 0.276227 -0.218728 3.787376 0.452495 -0.751577 16.627410 1.920405 -6.156015 18.870963 -1.576871 -10.777862 -0.665861 -0.950761 -3.660275 0.057043 -2.851176 -0.679652 -2.308832 1.952417 -145.994637 -73.782940 163.004244 1.291361 3.527782 0.351635 -9.378372 0.690158 -2.144345 -2.534474 -34.070039 10.344230 -19.564816 -75.119189 12.550531 -1.518782 -21.060454 16.152770 -4.599227 -42.914862 5.130647 -111.976783 85.946986 -107.420549 -0.291708 -9.096597 -2.664380 0.424960 -0.733934 0.212538 -0.501036 -39.698010 6.035826 70.907441 84.607840 60.091423 -6.304594 -12.915165 10.608963 0.321350 0.943014 0.125017
